<?xml version="1.0" encoding="UTF-8"?>
<svg version="1.1" xmlns="http://www.w3.org/2000/svg" width="120" height="120">
<path d="M0 0 C0.969375 0.165 1.93875 0.33 2.9375 0.5 C9.36318196 1.41052173 15.63347244 1.30595437 22 0 C22.5878125 1.7015625 22.5878125 1.7015625 23.1875 3.4375 C24.70207231 7.49799623 26.65248667 11.17377753 28.81640625 14.921875 C29.95255097 16.91669015 30.99217486 18.93790616 32 21 C31.01 21.825 30.02 22.65 29 23.5 C21.46041737 30.99360956 17.55806384 42.17139774 14 52 C13.34 52 12.68 52 12 52 C11.88391873 47.58355402 11.8127868 43.16749983 11.75 38.75 C11.71648438 37.49574219 11.68296875 36.24148437 11.6484375 34.94921875 C11.63554688 33.74394531 11.62265625 32.53867188 11.609375 31.296875 C11.58842773 30.18666992 11.56748047 29.07646484 11.54589844 27.93261719 C12.10250745 24.33800029 13.39100905 23.40879932 16 21 C15.85650653 17.80045046 15.85650653 17.80045046 15 15 C11.02245872 14.26665571 11.02245872 14.26665571 7 14 C6.9071875 15.8871875 6.9071875 15.8871875 6.8125 17.8125 C6.77769531 18.52019531 6.74289063 19.22789063 6.70703125 19.95703125 C6.78094914 22.10191348 6.78094914 22.10191348 8.5 23.24023438 C10.70970416 25.83260866 10.34029371 27.8391464 10.29296875 31.19921875 C10.28330078 32.40771484 10.27363281 33.61621094 10.26367188 34.86132812 C10.23853516 36.12396484 10.21339844 37.38660156 10.1875 38.6875 C10.16719727 40.59885742 10.16719727 40.59885742 10.14648438 42.54882812 C10.11108199 45.69964057 10.0616979 48.84961045 10 52 C7.525 49.525 7.525 49.525 5 47 C5.33 46.34 5.66 45.68 6 45 C4.89607565 42.35835989 3.73538548 39.85716636 2.4375 37.3125 C2.07124512 36.58732178 1.70499023 35.86214355 1.32763672 35.11499023 C-2.917051 26.78535976 -2.917051 26.78535976 -10 21 C-8.52727266 17.92001735 -6.81872188 15.07472098 -5 12.1875 C-2.54184692 8.14054066 -1.00282589 4.6129991 0 0 Z " fill="#FD8232" transform="translate(48,59)"/>
<path d="M0 0 C2.55263232 3.31761677 4.8593911 6.77225856 7.1875 10.25 C10.93496437 15.76591324 15.03210545 20.51941935 20 25 C19.67 25.78375 19.34 26.5675 19 27.375 C17.5540918 32.61641722 16.50141409 38.18002583 19.15625 43.17578125 C20.07969342 44.49681837 21.00414117 45.81715412 21.9296875 47.13671875 C23 49 23 49 23.1875 52.5 C21.66023181 57.00142204 19.44496149 60.69219154 16 64 C13.95703125 64.80078125 13.95703125 64.80078125 12 65 C8.34117274 63.26205705 5.74559948 60.94897721 3 58 C3.66 56.68 4.32 55.36 5 54 C4.0925 53.62875 3.185 53.2575 2.25 52.875 C-2.6214533 50.06454617 -4.70727311 46.41741029 -6.25 41.125 C-6.4975 40.09375 -6.745 39.0625 -7 38 C-2.87248551 38.60698743 0.3321148 40.03810791 4 42 C3.55269531 41.61070313 3.10539062 41.22140625 2.64453125 40.8203125 C-2.63127205 35.93822586 -7.28591115 30.14510169 -8.3046875 22.8046875 C-8.3125 20.875 -8.3125 20.875 -8 18 C-7.01 17.67 -6.02 17.34 -5 17 C-4.54109375 17.56589844 -4.0821875 18.13179687 -3.609375 18.71484375 C-2.99578125 19.44832031 -2.3821875 20.18179687 -1.75 20.9375 C-1.14671875 21.66839844 -0.5434375 22.39929688 0.078125 23.15234375 C2.10741134 25.10326334 3.254407 25.61731779 6 26 C5.67 25.01 5.34 24.02 5 23 C4.34 23 3.68 23 3 23 C2.18167278 21.10667466 1.37057732 19.21022267 0.5625 17.3125 C0.11003906 16.25675781 -0.34242187 15.20101563 -0.80859375 14.11328125 C-3.48538961 7.11850649 -3.48538961 7.11850649 -1.5625 2.6875 C-1.046875 1.800625 -0.53125 0.91375 0 0 Z " fill="#FD9138" transform="translate(21,11)"/>
<path d="M0 0 C3 2 3 2 3.75 4.3359375 C4.58875734 13.27394537 -1.1458053 21.00463997 -6 28 C-4.39032422 26.92486946 -2.78746337 25.83953156 -1.1875 24.75 C-0.29417969 24.14671875 0.59914063 23.5434375 1.51953125 22.921875 C3.8624022 21.10661121 5.26128639 19.36005571 7 17 C7.66 17 8.32 17 9 17 C9.68344958 25.20139492 7.75383639 30.24476855 2.9375 36.8125 C1.3441095 38.61148927 -0.25820678 40.34529644 -2 42 C-0.906875 41.34 0.18625 40.68 1.3125 40 C3.93707538 38.41535071 4.8256378 38 8 38 C6.36690609 44.99897391 3.99147311 48.95756031 -2 53 C-2.99 53.495 -2.99 53.495 -4 54 C-3.34 55.32 -2.68 56.64 -2 58 C-7.64516129 64.12903226 -7.64516129 64.12903226 -12 65 C-15.27818516 64.01654445 -16.64031418 62.56453363 -18.4609375 59.70703125 C-22.10148227 52.89860913 -22.10148227 52.89860913 -21.7578125 49.85546875 C-21 48 -21 48 -19 45.25 C-16.64671052 41.4259046 -15.87472462 38.46517258 -16 34 C-16.63106429 31.98848259 -17.29373761 29.98636298 -18 28 C-17.625 25.125 -17.625 25.125 -17 23 C-16.34 23 -15.68 23 -15 23 C-14.72671875 22.40445313 -14.4534375 21.80890625 -14.171875 21.1953125 C-13.03924984 19.07352802 -11.88337128 17.62253164 -10.25 15.875 C-6.05338364 11.12158442 -2.83105893 5.66211786 0 0 Z " fill="#FD9238" transform="translate(96,11)"/>
<path d="M0 0 C3.89543877 -0.14553599 7.79017651 -0.23415059 11.6875 -0.3125 C13.34168945 -0.3753418 13.34168945 -0.3753418 15.02929688 -0.43945312 C24.17730772 -0.5776406 24.17730772 -0.5776406 27.28125 2.3125 C29 5 29 5 28.8125 8.3125 C28.544375 9.199375 28.27625 10.08625 28 11 C27.34 11 26.68 11 26 11 C26 10.34 26 9.68 26 9 C24.35 9.33 22.7 9.66 21 10 C21.33 12.31 21.66 14.62 22 17 C16.51690266 19.4529646 11.77063755 19.02750561 6 18 C5.34 17.67 4.68 17.34 4 17 C4.66 14.03 5.32 11.06 6 8 C4.68 7.34 3.36 6.68 2 6 C0 3 0 3 0 0 Z " fill="#FCB847" transform="translate(46,39)"/>
<path d="M0 0 C2.33028092 0.93211237 3.75891532 1.69003398 5.3125 3.6875 C6.29016222 6.9760002 5.63938629 9.67519127 5 13 C6.65 13 8.3 13 10 13 C10.020625 12.236875 10.04125 11.47375 10.0625 10.6875 C11 8 11 8 14.5625 6.1875 C15.696875 5.795625 16.83125 5.40375 18 5 C17.38170447 10.07002337 16.13290367 13.02322476 14 18 C5.75 18 -2.5 18 -11 18 C-16 8 -16 8 -16 6 C-13.6875 5.75 -13.6875 5.75 -11 6 C-9.1875 7.8125 -9.1875 7.8125 -8 10 C-8 10.99 -8 11.98 -8 13 C-6.35 13 -4.7 13 -3 13 C-3.2784375 11.9171875 -3.2784375 11.9171875 -3.5625 10.8125 C-4.01995307 7.87173027 -3.73516357 5.85896942 -3 3 C-2.34 3 -1.68 3 -1 3 C-0.67 2.01 -0.34 1.02 0 0 Z " fill="#FBB747" transform="translate(58,18)"/>
<path d="M0 0 C2.10814567 4.21629134 2.17700355 6.39790775 2 11 C3.32 11.33 4.64 11.66 6 12 C5.52343588 13.79236067 5.04366502 15.58386897 4.5625 17.375 C4.29566406 18.37273437 4.02882813 19.37046875 3.75390625 20.3984375 C3 23 3 23 2 25 C1.34 25 0.68 25 0 25 C0 16.75 0 8.5 0 0 Z " fill="#F65B24" transform="translate(60,86)"/>
<path d="M0 0 C0.33 0 0.66 0 1 0 C1 8.58 1 17.16 1 26 C-0.65 24.35 -2.3 22.7 -4 21 C-3.67 20.34 -3.34 19.68 -3 19 C-3.28112064 16.99199544 -3.61067967 14.98985949 -4 13 C-2.68 13 -1.36 13 0 13 C0 8.71 0 4.42 0 0 Z " fill="#F65D25" transform="translate(57,85)"/>
</svg>
